<svg width="229" height="149" viewBox="0 0 229 149" fill="none" xmlns="http://www.w3.org/2000/svg">
<g clip-path="url(#clip0_40_5)">
<path d="M113.323 25.33C117.159 25.33 120.27 22.2391 120.27 18.4263C120.27 14.6135 117.159 11.5226 113.323 11.5226C109.486 11.5226 106.376 14.6135 106.376 18.4263C106.376 22.2391 109.486 25.33 113.323 25.33Z" fill="#FD6584"/>
<path d="M128.87 15.1575C128.674 14.5191 128.295 13.9516 127.779 13.5248C127.262 13.098 126.632 12.8306 125.964 12.7555C125.949 12.7542 125.933 12.7542 125.917 12.7555C125.899 12.7497 125.88 12.7453 125.86 12.7426C123.534 12.4426 120.948 13.1718 119.207 14.7593C118.561 15.3394 118.044 16.0475 117.69 16.8381C117.368 16.4001 116.943 16.0469 116.452 15.809C115.961 15.5712 115.419 15.4558 114.873 15.4729C114.169 15.5192 113.496 15.7801 112.947 16.2202C112.397 16.6602 111.998 17.2579 111.803 17.9318C111.781 18.0142 111.787 18.1012 111.819 18.1799C111.852 18.2586 111.909 18.3249 111.982 18.3688C112.191 18.5466 112.44 18.6725 112.708 18.7359C113.283 18.8575 113.863 18.9686 114.443 19.0695C115.578 19.266 116.718 19.4254 117.865 19.5478C118.622 19.628 119.381 19.6917 120.141 19.7391C121.713 19.8374 123.292 19.8607 124.866 19.8115C125.647 19.7857 126.396 19.7598 127.109 19.4185C127.628 19.1646 128.072 18.7806 128.397 18.3041C128.702 17.8459 128.903 17.3267 128.985 16.783C129.067 16.2394 129.028 15.6845 128.87 15.1575Z" fill="#E6E6E6"/>
<path d="M114.579 25.2153C114.566 24.9261 114.517 24.6395 114.433 24.3621C114.236 23.7237 113.856 23.1564 113.34 22.7297C112.823 22.303 112.192 22.0355 111.524 21.9601C111.51 21.9588 111.495 21.9588 111.48 21.9601C111.461 21.9545 111.441 21.9502 111.42 21.9472C110.133 21.7904 108.827 21.9239 107.598 22.3376C105.709 22.9659 104.052 24.2328 103.253 26.0427C102.93 25.6045 102.505 25.2511 102.013 25.0132C101.522 24.7753 100.979 24.6601 100.433 24.6775C99.7289 24.7238 99.0563 24.9847 98.5069 25.4248C97.9574 25.8648 97.558 26.4625 97.3629 27.1364C97.3426 27.2188 97.3491 27.3054 97.3813 27.3838C97.4136 27.4623 97.47 27.5287 97.5424 27.5734C97.752 27.7508 98.0007 27.8765 98.2683 27.9405C98.8459 28.0621 99.4235 28.1733 100.006 28.2741C101.141 28.4706 102.28 28.63 103.425 28.7524C105.751 29.0005 108.091 29.0887 110.429 29.0161C111.207 28.9903 111.959 28.9644 112.672 28.6231C113.191 28.3692 113.634 27.985 113.957 27.5087C114.413 26.8333 114.632 26.027 114.579 25.2153Z" fill="#E6E6E6"/>
<path d="M205.056 108.985C205.156 113.692 204.502 118.385 203.12 122.889C203.071 123.052 203.013 123.216 202.955 123.379H174.451C174.859 121.385 175.506 119.447 176.378 117.606C178.75 112.603 182.623 108.321 186.447 104.069C191.714 98.209 196.856 92.3975 197.669 84.7771C199.757 87.94 201.423 91.3586 202.626 94.9473C201.153 95.4895 199.801 96.3132 198.647 97.3719C198.327 97.6702 197.988 98.1032 198.153 98.5169C198.308 98.8633 198.734 98.9788 199.111 99.0557C200.022 99.2289 200.932 99.4021 201.842 99.5657C202.558 99.71 203.284 99.8447 204.011 99.9794C204.649 102.941 204.999 105.957 205.056 108.985Z" fill="#F2F2F2"/>
<path d="M229 105.868C224.43 108.629 221.525 112.901 219.153 117.683C217.089 118.151 215.183 119.146 213.625 120.57C213.296 120.868 212.957 121.301 213.131 121.715C213.276 122.061 213.712 122.177 214.09 122.254C214.99 122.427 215.91 122.6 216.81 122.764C216.723 122.966 216.636 123.177 216.549 123.379H186.341C187.712 121.542 189.231 119.817 190.882 118.222C191.24 117.866 191.608 117.529 191.985 117.183C195.836 113.725 200.258 110.951 205.056 108.985C212.616 105.845 220.882 104.769 229 105.868Z" fill="#F2F2F2"/>
<path d="M191.375 123.38H164.479C164.332 121.239 164.345 119.091 164.517 116.952C165.592 103.742 172.825 91.1565 183.736 83.536C182.342 88.472 183.058 93.3791 184.511 98.3054C184.307 98.3728 184.104 98.4305 183.92 98.5074C182.447 99.0497 181.095 99.8735 179.941 100.932C179.621 101.23 179.282 101.663 179.447 102.077C179.592 102.423 180.028 102.539 180.406 102.616C181.316 102.789 182.226 102.962 183.126 103.126C183.852 103.27 184.579 103.405 185.305 103.549C185.644 103.607 185.982 103.674 186.321 103.742C186.37 103.857 186.399 103.963 186.447 104.069C188.151 108.735 190.01 113.44 190.882 118.222C191.097 119.422 191.246 120.633 191.327 121.85C191.356 122.36 191.375 122.87 191.375 123.38Z" fill="#F2F2F2"/>
<path d="M44.7855 108.985C44.8853 113.692 44.2317 118.385 42.8491 122.889C42.8006 123.052 42.7425 123.216 42.6844 123.379H14.1804C14.5879 121.385 15.2348 119.447 16.1072 117.606C18.4793 112.603 22.3521 108.321 26.1765 104.069C31.4436 98.209 36.5848 92.3975 37.3981 84.7771C39.4858 87.94 41.1521 91.3586 42.3553 94.9473C40.8823 95.4895 39.5304 96.3132 38.376 97.3719C38.0564 97.6702 37.7175 98.1032 37.8822 98.5169C38.0371 98.8633 38.4631 98.9788 38.8407 99.0557C39.7508 99.2289 40.6609 99.4021 41.571 99.5657C42.2875 99.71 43.0137 99.8447 43.7398 99.9794C44.3781 102.941 44.7282 105.957 44.7855 108.985Z" fill="#F2F2F2"/>
<path d="M68.7291 105.868C64.1592 108.629 61.2546 112.901 58.8825 117.683C56.8183 118.151 54.9126 119.146 53.354 120.57C53.0248 120.868 52.6859 121.301 52.8602 121.715C53.0055 122.061 53.4412 122.177 53.8187 122.254C54.7192 122.427 55.639 122.6 56.5394 122.764C56.4523 122.966 56.3651 123.177 56.278 123.379H26.0699C27.4412 121.542 28.9598 119.817 30.6108 118.222C30.9691 117.866 31.337 117.529 31.7146 117.183C35.5654 113.725 39.987 110.951 44.7854 108.985C52.3446 105.845 60.611 104.769 68.7291 105.868Z" fill="#F2F2F2"/>
<path d="M31.1046 123.38H4.20781C4.06093 121.239 4.07389 119.091 4.24657 116.952C5.32127 103.742 12.5538 91.1565 23.4655 83.536C22.0712 88.472 22.7877 93.3791 24.24 98.3054C24.0367 98.3728 23.8334 98.4305 23.6494 98.5074C22.1764 99.0497 20.8245 99.8735 19.6701 100.932C19.3506 101.23 19.0117 101.663 19.1763 102.077C19.3215 102.423 19.7572 102.539 20.1348 102.616C21.0449 102.789 21.9551 102.962 22.8555 103.126C23.5816 103.27 24.3078 103.405 25.0339 103.549C25.3728 103.607 25.7117 103.674 26.0506 103.742C26.0989 103.857 26.128 103.963 26.1764 104.069C27.8805 108.735 29.7394 113.44 30.6108 118.222C30.8265 119.422 30.9752 120.633 31.0562 121.85C31.0853 122.36 31.1046 122.87 31.1046 123.38Z" fill="#F2F2F2"/>
<path d="M131.237 112.157L155.27 114.278L155.528 114.301V12.3926C155.442 12.3332 155.356 12.2737 155.27 12.2142C150.261 8.73267 144.843 5.8725 139.136 3.69733L137.908 20.5295L137.796 22.0705L136.581 38.763L136.207 43.898L131.282 111.563L131.237 112.157Z" fill="#E6E6E6"/>
<path d="M71.8043 10.4948C71.6326 10.6034 71.4609 10.712 71.2892 10.8258V114.301L71.8043 114.254L95.577 112.157L95.5328 111.563L90.6075 43.898L90.2329 38.763L89.0178 22.0705L88.906 20.5295L87.6181 2.87769C82.0641 4.79085 76.7563 7.34751 71.8043 10.4948Z" fill="#E6E6E6"/>
<path d="M71.2893 10.826C70.9432 11.0484 70.5972 11.2759 70.2563 11.506V115.713C70.2563 118.316 71.8096 120.499 73.8859 121.055C74.2251 121.146 74.5751 121.192 74.9266 121.192H152.148C152.499 121.192 152.848 121.146 153.186 121.055C153.958 120.842 154.657 120.425 155.21 119.85C156.265 118.73 156.841 117.247 156.818 115.713V13.3185C156.392 13.0057 155.962 12.6954 155.528 12.3929C155.442 12.3334 155.356 12.2739 155.27 12.2145V115.713C155.271 116.048 155.231 116.382 155.151 116.708C154.784 118.247 153.574 119.374 152.148 119.374H74.9266C73.2042 119.374 71.8044 117.732 71.8044 115.713V10.4951C71.6327 10.6037 71.461 10.7122 71.2893 10.826Z" fill="#E6E6E6"/>
<path d="M156.044 20.5306H71.0297V22.0714H156.044V20.5306Z" fill="#E6E6E6"/>
<path d="M130.007 0.876526C129.491 0.749833 128.976 0.630894 128.456 0.519714V42.357H130.007V0.876526Z" fill="#E6E6E6"/>
<path d="M98.6185 0C98.1008 0.0956666 97.583 0.19392 97.0679 0.299929V42.357H98.6185V0Z" fill="#E6E6E6"/>
<path d="M54.3621 118.495C54.3617 119.379 54.5322 120.255 54.8642 121.075C54.9917 121.393 55.144 121.701 55.3195 121.996C55.5463 122.38 55.8094 122.742 56.1053 123.076C56.7589 123.817 57.564 124.41 58.4667 124.816C59.3695 125.222 60.3491 125.432 61.3401 125.432H163.151C165.002 125.432 166.777 124.701 168.085 123.401C169.394 122.1 170.129 120.337 170.129 118.497C170.129 116.658 169.394 114.894 168.085 113.594C166.777 112.293 165.002 111.563 163.151 111.563H61.3401C59.4904 111.565 57.717 112.295 56.4088 113.595C55.1006 114.895 54.3646 116.657 54.3621 118.495Z" fill="#E6E6E6"/>
<path d="M71.0298 43.8986L155.527 43.8986V38.7628L71.0298 38.7628V43.8986Z" fill="#E6E6E6"/>
<path d="M116.896 40.0468H109.661C109.661 39.2977 109.96 38.5792 110.494 38.0494C111.027 37.5197 111.75 37.2221 112.503 37.2221H114.054C114.427 37.2221 114.797 37.2952 115.142 37.4371C115.486 37.5791 115.8 37.7872 116.064 38.0494C116.328 38.3117 116.537 38.6231 116.68 38.9658C116.823 39.3086 116.896 39.6759 116.896 40.0468H116.896Z" fill="#E6E6E6"/>
<path d="M0 122.456C2.26025 125.117 4.70496 127.619 7.31626 129.941H217.172C219.783 127.619 222.228 125.117 224.488 122.456H0Z" fill="#3F3D56"/>
<path d="M103.211 97.4248V123.943H121.905V97.4248C121.905 97.234 121.844 97.0482 121.73 96.8947C121.616 96.7411 121.456 96.6278 121.272 96.5715C121.186 96.5431 121.095 96.5292 121.004 96.5301H104.114C103.995 96.5299 103.878 96.5529 103.768 96.5977C103.659 96.6426 103.559 96.7084 103.476 96.7915C103.392 96.8746 103.325 96.9733 103.28 97.0819C103.234 97.1906 103.211 97.3071 103.211 97.4248ZM110.506 106.536C110.511 106.014 110.724 105.514 111.097 105.146C111.471 104.778 111.976 104.572 112.502 104.572C113.028 104.572 113.533 104.778 113.906 105.146C114.28 105.514 114.492 106.014 114.497 106.536V109.613C114.495 110.137 114.283 110.639 113.909 111.009C113.535 111.379 113.029 111.586 112.502 111.586C111.974 111.586 111.468 111.379 111.094 111.009C110.72 110.639 110.509 110.137 110.506 109.613V106.536Z" fill="#2F2E41"/>
<path d="M103.154 123.095V125.652C103.154 125.784 103.207 125.911 103.301 126.005C103.395 126.099 103.522 126.152 103.656 126.153H121.46C121.593 126.153 121.721 126.099 121.815 126.005C121.909 125.911 121.962 125.784 121.962 125.652V123.095H103.154Z" fill="#3F3D56"/>
<path d="M73.8027 57.4725V105.89C73.8032 106.507 74.0501 107.099 74.4891 107.535C74.9282 107.971 75.5235 108.217 76.1444 108.217H148.344C148.965 108.217 149.561 107.971 150 107.535C150.439 107.099 150.685 106.507 150.686 105.89V57.4725C150.684 56.856 150.437 56.2653 149.998 55.8296C149.559 55.3939 148.965 55.1489 148.344 55.1481H76.1444C75.524 55.1489 74.9293 55.3939 74.4904 55.8296C74.0515 56.2653 73.8042 56.856 73.8027 57.4725Z" fill="#3F3D56"/>
<path d="M75.4963 58.0748V105.293C75.4969 105.622 75.6289 105.938 75.8635 106.171C76.0981 106.405 76.4161 106.536 76.7478 106.536H147.743C148.075 106.536 148.393 106.405 148.627 106.171C148.862 105.938 148.994 105.622 148.995 105.293V58.0748C148.995 57.7447 148.863 57.4282 148.628 57.1945C148.394 56.9609 148.075 56.8293 147.743 56.8286H76.7478C76.4157 56.8293 76.0974 56.9609 75.8628 57.1945C75.6282 57.4282 75.4964 57.7447 75.4963 58.0748Z" fill="#1976D2"/>
<path d="M89.9728 126.756C90.0451 126.846 90.1369 126.918 90.2415 126.968C90.346 127.018 90.4606 127.043 90.5764 127.043H132.814C132.93 127.043 133.044 127.017 133.148 126.967C133.252 126.918 133.344 126.846 133.417 126.757C133.489 126.668 133.541 126.564 133.569 126.452C133.596 126.34 133.597 126.224 133.574 126.112L132.918 123.017C132.891 122.891 132.832 122.773 132.748 122.675C132.663 122.577 132.556 122.502 132.434 122.456C132.346 122.422 132.253 122.404 132.158 122.404H91.2295C91.1351 122.404 91.0416 122.422 90.9537 122.456C90.8324 122.502 90.7245 122.577 90.64 122.675C90.5555 122.773 90.497 122.891 90.4698 123.017L89.8141 126.112C89.7908 126.224 89.7929 126.34 89.8204 126.452C89.8478 126.563 89.8999 126.667 89.9728 126.756Z" fill="#2F2E41"/>
<path d="M130.684 123.737H131.731C131.801 123.737 131.858 123.681 131.858 123.611V123.088C131.858 123.018 131.801 122.962 131.731 122.962H130.684C130.614 122.962 130.557 123.018 130.557 123.088V123.611C130.557 123.681 130.614 123.737 130.684 123.737Z" fill="#3F3D56"/>
<path d="M128.083 123.737H129.13C129.2 123.737 129.257 123.681 129.257 123.611V123.088C129.257 123.018 129.2 122.962 129.13 122.962H128.083C128.013 122.962 127.956 123.018 127.956 123.088V123.611C127.956 123.681 128.013 123.737 128.083 123.737Z" fill="#3F3D56"/>
<path d="M125.481 123.737H126.528C126.598 123.737 126.655 123.681 126.655 123.611V123.088C126.655 123.018 126.598 122.962 126.528 122.962H125.481C125.411 122.962 125.354 123.018 125.354 123.088V123.611C125.354 123.681 125.411 123.737 125.481 123.737Z" fill="#3F3D56"/>
<path d="M122.879 123.737H123.926C123.996 123.737 124.053 123.681 124.053 123.611V123.088C124.053 123.018 123.996 122.962 123.926 122.962H122.879C122.809 122.962 122.752 123.018 122.752 123.088V123.611C122.752 123.681 122.809 123.737 122.879 123.737Z" fill="#3F3D56"/>
<path d="M120.277 123.737H121.324C121.394 123.737 121.451 123.681 121.451 123.611V123.088C121.451 123.018 121.394 122.962 121.324 122.962H120.277C120.207 122.962 120.15 123.018 120.15 123.088V123.611C120.15 123.681 120.207 123.737 120.277 123.737Z" fill="#3F3D56"/>
<path d="M117.676 123.737H118.722C118.793 123.737 118.849 123.681 118.849 123.611V123.088C118.849 123.018 118.793 122.962 118.722 122.962H117.676C117.605 122.962 117.549 123.018 117.549 123.088V123.611C117.549 123.681 117.605 123.737 117.676 123.737Z" fill="#3F3D56"/>
<path d="M115.074 123.737H116.121C116.191 123.737 116.248 123.681 116.248 123.611V123.088C116.248 123.018 116.191 122.962 116.121 122.962H115.074C115.004 122.962 114.947 123.018 114.947 123.088V123.611C114.947 123.681 115.004 123.737 115.074 123.737Z" fill="#3F3D56"/>
<path d="M112.472 123.737H113.519C113.589 123.737 113.646 123.681 113.646 123.611V123.088C113.646 123.018 113.589 122.962 113.519 122.962H112.472C112.402 122.962 112.345 123.018 112.345 123.088V123.611C112.345 123.681 112.402 123.737 112.472 123.737Z" fill="#3F3D56"/>
<path d="M109.87 123.737H110.917C110.987 123.737 111.044 123.681 111.044 123.611V123.088C111.044 123.018 110.987 122.962 110.917 122.962H109.87C109.8 122.962 109.743 123.018 109.743 123.088V123.611C109.743 123.681 109.8 123.737 109.87 123.737Z" fill="#3F3D56"/>
<path d="M107.268 123.737H108.315C108.385 123.737 108.442 123.681 108.442 123.611V123.088C108.442 123.018 108.385 122.962 108.315 122.962H107.268C107.198 122.962 107.141 123.018 107.141 123.088V123.611C107.141 123.681 107.198 123.737 107.268 123.737Z" fill="#3F3D56"/>
<path d="M104.667 123.737H105.713C105.784 123.737 105.84 123.681 105.84 123.611V123.088C105.84 123.018 105.784 122.962 105.713 122.962H104.667C104.596 122.962 104.54 123.018 104.54 123.088V123.611C104.54 123.681 104.596 123.737 104.667 123.737Z" fill="#3F3D56"/>
<path d="M102.065 123.737H103.112C103.182 123.737 103.239 123.681 103.239 123.611V123.088C103.239 123.018 103.182 122.962 103.112 122.962H102.065C101.995 122.962 101.938 123.018 101.938 123.088V123.611C101.938 123.681 101.995 123.737 102.065 123.737Z" fill="#3F3D56"/>
<path d="M99.463 123.737H100.51C100.58 123.737 100.637 123.681 100.637 123.611V123.088C100.637 123.018 100.58 122.962 100.51 122.962H99.463C99.3928 122.962 99.336 123.018 99.336 123.088V123.611C99.336 123.681 99.3928 123.737 99.463 123.737Z" fill="#3F3D56"/>
<path d="M96.8611 123.737H97.908C97.9782 123.737 98.035 123.681 98.035 123.611V123.088C98.035 123.018 97.9782 122.962 97.908 122.962H96.8611C96.791 122.962 96.7341 123.018 96.7341 123.088V123.611C96.7341 123.681 96.791 123.737 96.8611 123.737Z" fill="#3F3D56"/>
<path d="M94.2593 123.737H95.3062C95.3764 123.737 95.4332 123.681 95.4332 123.611V123.088C95.4332 123.018 95.3764 122.962 95.3062 122.962H94.2593C94.1892 122.962 94.1323 123.018 94.1323 123.088V123.611C94.1323 123.681 94.1892 123.737 94.2593 123.737Z" fill="#3F3D56"/>
<path d="M91.6575 123.737H92.7044C92.7745 123.737 92.8314 123.681 92.8314 123.611V123.088C92.8314 123.018 92.7745 122.962 92.7044 122.962H91.6575C91.5874 122.962 91.5305 123.018 91.5305 123.088V123.611C91.5305 123.681 91.5874 123.737 91.6575 123.737Z" fill="#3F3D56"/>
<path d="M130.715 125.03H131.762C131.832 125.03 131.889 124.973 131.889 124.904V124.381C131.889 124.311 131.832 124.254 131.762 124.254H130.715C130.645 124.254 130.588 124.311 130.588 124.381V124.904C130.588 124.973 130.645 125.03 130.715 125.03Z" fill="#3F3D56"/>
<path d="M128.113 125.03H129.16C129.23 125.03 129.287 124.973 129.287 124.904V124.381C129.287 124.311 129.23 124.254 129.16 124.254H128.113C128.043 124.254 127.986 124.311 127.986 124.381V124.904C127.986 124.973 128.043 125.03 128.113 125.03Z" fill="#3F3D56"/>
<path d="M125.512 125.03H126.559C126.629 125.03 126.686 124.973 126.686 124.904V124.381C126.686 124.311 126.629 124.254 126.559 124.254H125.512C125.442 124.254 125.385 124.311 125.385 124.381V124.904C125.385 124.973 125.442 125.03 125.512 125.03Z" fill="#3F3D56"/>
<path d="M122.91 125.03H123.957C124.027 125.03 124.084 124.973 124.084 124.904V124.381C124.084 124.311 124.027 124.254 123.957 124.254H122.91C122.84 124.254 122.783 124.311 122.783 124.381V124.904C122.783 124.973 122.84 125.03 122.91 125.03Z" fill="#3F3D56"/>
<path d="M120.308 125.03H121.355C121.425 125.03 121.482 124.973 121.482 124.904V124.381C121.482 124.311 121.425 124.254 121.355 124.254H120.308C120.238 124.254 120.181 124.311 120.181 124.381V124.904C120.181 124.973 120.238 125.03 120.308 125.03Z" fill="#3F3D56"/>
<path d="M117.706 125.03H118.753C118.823 125.03 118.88 124.973 118.88 124.904V124.381C118.88 124.311 118.823 124.254 118.753 124.254H117.706C117.636 124.254 117.579 124.311 117.579 124.381V124.904C117.579 124.973 117.636 125.03 117.706 125.03Z" fill="#3F3D56"/>
<path d="M115.104 125.03H116.151C116.221 125.03 116.278 124.973 116.278 124.904V124.381C116.278 124.311 116.221 124.254 116.151 124.254H115.104C115.034 124.254 114.977 124.311 114.977 124.381V124.904C114.977 124.973 115.034 125.03 115.104 125.03Z" fill="#3F3D56"/>
<path d="M112.503 125.03H113.549C113.62 125.03 113.677 124.973 113.677 124.904V124.381C113.677 124.311 113.62 124.254 113.549 124.254H112.503C112.432 124.254 112.376 124.311 112.376 124.381V124.904C112.376 124.973 112.432 125.03 112.503 125.03Z" fill="#3F3D56"/>
<path d="M109.901 125.03H110.948C111.018 125.03 111.075 124.973 111.075 124.904V124.381C111.075 124.311 111.018 124.254 110.948 124.254H109.901C109.831 124.254 109.774 124.311 109.774 124.381V124.904C109.774 124.973 109.831 125.03 109.901 125.03Z" fill="#3F3D56"/>
<path d="M107.299 125.03H108.346C108.416 125.03 108.473 124.973 108.473 124.904V124.381C108.473 124.311 108.416 124.254 108.346 124.254H107.299C107.229 124.254 107.172 124.311 107.172 124.381V124.904C107.172 124.973 107.229 125.03 107.299 125.03Z" fill="#3F3D56"/>
<path d="M104.697 125.03H105.744C105.814 125.03 105.871 124.973 105.871 124.904V124.381C105.871 124.311 105.814 124.254 105.744 124.254H104.697C104.627 124.254 104.57 124.311 104.57 124.381V124.904C104.57 124.973 104.627 125.03 104.697 125.03Z" fill="#3F3D56"/>
<path d="M102.095 125.03H103.142C103.212 125.03 103.269 124.973 103.269 124.904V124.381C103.269 124.311 103.212 124.254 103.142 124.254H102.095C102.025 124.254 101.968 124.311 101.968 124.381V124.904C101.968 124.973 102.025 125.03 102.095 125.03Z" fill="#3F3D56"/>
<path d="M99.4938 125.03H100.541C100.611 125.03 100.668 124.973 100.668 124.904V124.381C100.668 124.311 100.611 124.254 100.541 124.254H99.4938C99.4237 124.254 99.3668 124.311 99.3668 124.381V124.904C99.3668 124.973 99.4237 125.03 99.4938 125.03Z" fill="#3F3D56"/>
<path d="M96.8918 125.03H97.9386C98.0088 125.03 98.0657 124.973 98.0657 124.904V124.381C98.0657 124.311 98.0088 124.254 97.9386 124.254H96.8918C96.8216 124.254 96.7648 124.311 96.7648 124.381V124.904C96.7648 124.973 96.8216 125.03 96.8918 125.03Z" fill="#3F3D56"/>
<path d="M94.29 125.03H95.3368C95.407 125.03 95.4639 124.973 95.4639 124.904V124.381C95.4639 124.311 95.407 124.254 95.3368 124.254H94.29C94.2198 124.254 94.163 124.311 94.163 124.381V124.904C94.163 124.973 94.2198 125.03 94.29 125.03Z" fill="#3F3D56"/>
<path d="M91.6884 125.03H92.7353C92.8054 125.03 92.8623 124.973 92.8623 124.904V124.381C92.8623 124.311 92.8054 124.254 92.7353 124.254H91.6884C91.6182 124.254 91.5614 124.311 91.5614 124.381V124.904C91.5614 124.973 91.6182 125.03 91.6884 125.03Z" fill="#3F3D56"/>
<path d="M109.12 126.581H119.273C119.344 126.581 119.401 126.525 119.401 126.455V125.932C119.401 125.862 119.344 125.806 119.273 125.806H109.12C109.05 125.806 108.993 125.862 108.993 125.932V126.455C108.993 126.525 109.05 126.581 109.12 126.581Z" fill="#3F3D56"/>
<path d="M80.3154 63.3329H146.745C146.814 63.3314 146.88 63.3031 146.929 63.254C146.977 63.205 147.004 63.139 147.004 63.0704C147.004 63.0017 146.977 62.9358 146.929 62.8868C146.88 62.8377 146.814 62.8094 146.745 62.8079H80.3154C80.2464 62.8094 80.1807 62.8377 80.1324 62.8868C80.0841 62.9358 80.057 63.0017 80.057 63.0704C80.057 63.139 80.0841 63.205 80.1324 63.254C80.1807 63.3031 80.2464 63.3314 80.3154 63.3329Z" fill="#3F3D56"/>
<path d="M142.224 61.4675C143.079 61.4675 143.772 60.7633 143.772 59.8947C143.772 59.026 143.079 58.3218 142.224 58.3218C141.369 58.3218 140.675 59.026 140.675 59.8947C140.675 60.7633 141.369 61.4675 142.224 61.4675Z" fill="#3F3D56"/>
<path d="M136.875 61.4675C137.73 61.4675 138.423 60.7633 138.423 59.8947C138.423 59.026 137.73 58.3218 136.875 58.3218C136.02 58.3218 135.327 59.026 135.327 59.8947C135.327 60.7633 136.02 61.4675 136.875 61.4675Z" fill="#3F3D56"/>
<path d="M131.527 61.4675C132.382 61.4675 133.075 60.7633 133.075 59.8947C133.075 59.026 132.382 58.3218 131.527 58.3218C130.672 58.3218 129.979 59.026 129.979 59.8947C129.979 60.7633 130.672 61.4675 131.527 61.4675Z" fill="#3F3D56"/>
<path d="M83.2523 58.9979C83.2521 59.0351 83.2593 59.0719 83.2735 59.1063C83.2877 59.1407 83.3085 59.1721 83.3348 59.1985C83.3612 59.2249 83.3925 59.2459 83.427 59.2603C83.4615 59.2746 83.4985 59.2821 83.5359 59.2823H87.3345C87.4096 59.2806 87.4811 59.2497 87.5335 59.1963C87.586 59.1429 87.6154 59.0712 87.6154 58.9966C87.6154 58.9219 87.586 58.8503 87.5335 58.7969C87.4811 58.7435 87.4096 58.7126 87.3345 58.7109H83.5359C83.4601 58.7118 83.3877 58.7425 83.3346 58.7963C83.2814 58.85 83.2519 58.9225 83.2523 58.9979Z" fill="#3F3D56"/>
<path d="M83.2523 60.071C83.2521 60.1082 83.2593 60.145 83.2735 60.1795C83.2877 60.2139 83.3085 60.2452 83.3348 60.2716C83.3612 60.298 83.3925 60.319 83.427 60.3334C83.4615 60.3478 83.4985 60.3553 83.5359 60.3554H87.3345C87.4097 60.3538 87.4812 60.3229 87.5338 60.2695C87.5863 60.2161 87.6158 60.1444 87.6158 60.0697C87.6158 59.995 87.5863 59.9233 87.5338 59.8699C87.4812 59.8165 87.4097 59.7856 87.3345 59.784H83.5359C83.4601 59.7849 83.3877 59.8156 83.3346 59.8694C83.2814 59.9231 83.2519 59.9956 83.2523 60.071Z" fill="#3F3D56"/>
<path d="M83.2523 61.1413C83.2519 61.2166 83.2814 61.2891 83.3346 61.3429C83.3877 61.3967 83.4601 61.4274 83.5359 61.4283H87.3345C87.4096 61.4265 87.4811 61.3957 87.5335 61.3423C87.586 61.2889 87.6154 61.2172 87.6154 61.1426C87.6154 61.0679 87.586 60.9963 87.5335 60.9429C87.4811 60.8895 87.4096 60.8586 87.3345 60.8569H83.5359C83.4985 60.857 83.4615 60.8645 83.427 60.8789C83.3925 60.8933 83.3612 60.9143 83.3348 60.9407C83.3085 60.9671 83.2877 60.9984 83.2735 61.0328C83.2593 61.0672 83.2521 61.1041 83.2523 61.1413Z" fill="#3F3D56"/>
<path d="M84.4263 69.4341H83.0613C82.6475 69.4341 82.312 69.7675 82.312 70.1787C82.312 70.59 82.6475 70.9234 83.0613 70.9234H84.4263C84.8401 70.9234 85.1756 70.59 85.1756 70.1787C85.1756 69.7675 84.8401 69.4341 84.4263 69.4341Z" fill="#E6E6E6"/>
<path d="M100.037 69.4341H98.6722C98.2583 69.4341 97.9229 69.7675 97.9229 70.1787C97.9229 70.59 98.2583 70.9234 98.6722 70.9234H100.037C100.451 70.9234 100.786 70.59 100.786 70.1787C100.786 69.7675 100.451 69.4341 100.037 69.4341Z" fill="#E6E6E6"/>
<path d="M104.46 69.4341H103.095C102.681 69.4341 102.346 69.7675 102.346 70.1787C102.346 70.59 102.681 70.9234 103.095 70.9234H104.46C104.874 70.9234 105.21 70.59 105.21 70.1787C105.21 69.7675 104.874 69.4341 104.46 69.4341Z" fill="#E6E6E6"/>
<path d="M95.791 69.31H87.3077C86.8938 69.31 86.5583 69.6434 86.5583 70.0546C86.5583 70.4659 86.8938 70.7993 87.3077 70.7993H95.791C96.2048 70.7993 96.5403 70.4659 96.5403 70.0546C96.5403 69.6434 96.2048 69.31 95.791 69.31Z" fill="#E6E6E6"/>
<path d="M116.605 69.31H108.122C107.708 69.31 107.373 69.6434 107.373 70.0546C107.373 70.4659 107.708 70.7993 108.122 70.7993H116.605C117.019 70.7993 117.355 70.4659 117.355 70.0546C117.355 69.6434 117.019 69.31 116.605 69.31Z" fill="#E6E6E6"/>
<path d="M88.5891 72.7953H87.2242C86.8103 72.7953 86.4749 73.1287 86.4749 73.54C86.4749 73.9512 86.8103 74.2846 87.2242 74.2846H88.5891C89.0029 74.2846 89.3384 73.9512 89.3384 73.54C89.3384 73.1287 89.0029 72.7953 88.5891 72.7953Z" fill="#E6E6E6"/>
<path d="M104.2 72.7953H102.835C102.421 72.7953 102.086 73.1287 102.086 73.54C102.086 73.9512 102.421 74.2846 102.835 74.2846H104.2C104.614 74.2846 104.949 73.9512 104.949 73.54C104.949 73.1287 104.614 72.7953 104.2 72.7953Z" fill="#E6E6E6"/>
<path d="M108.623 72.7953H107.258C106.844 72.7953 106.509 73.1287 106.509 73.54C106.509 73.9512 106.844 74.2846 107.258 74.2846H108.623C109.037 74.2846 109.372 73.9512 109.372 73.54C109.372 73.1287 109.037 72.7953 108.623 72.7953Z" fill="#E6E6E6"/>
<path d="M99.9537 72.6713H91.4704C91.0565 72.6713 90.7211 73.0047 90.7211 73.416C90.7211 73.8272 91.0565 74.1606 91.4704 74.1606H99.9537C100.368 74.1606 100.703 73.8272 100.703 73.416C100.703 73.0047 100.368 72.6713 99.9537 72.6713Z" fill="#E6E6E6"/>
<path d="M120.768 72.6713H112.285C111.871 72.6713 111.536 73.0047 111.536 73.416C111.536 73.8272 111.871 74.1606 112.285 74.1606H120.768C121.182 74.1606 121.518 73.8272 121.518 73.416C121.518 73.0047 121.182 72.6713 120.768 72.6713Z" fill="#E6E6E6"/>
<path d="M92.7522 76.1566H91.3872C90.9734 76.1566 90.6379 76.49 90.6379 76.9012C90.6379 77.3125 90.9734 77.6459 91.3872 77.6459H92.7522C93.166 77.6459 93.5015 77.3125 93.5015 76.9012C93.5015 76.49 93.166 76.1566 92.7522 76.1566Z" fill="#E6E6E6"/>
<path d="M108.363 76.1566H106.998C106.584 76.1566 106.249 76.49 106.249 76.9012C106.249 77.3125 106.584 77.6459 106.998 77.6459H108.363C108.777 77.6459 109.112 77.3125 109.112 76.9012C109.112 76.49 108.777 76.1566 108.363 76.1566Z" fill="#E6E6E6"/>
<path d="M112.786 76.1566H111.421C111.007 76.1566 110.672 76.49 110.672 76.9012C110.672 77.3125 111.007 77.6459 111.421 77.6459H112.786C113.2 77.6459 113.535 77.3125 113.535 76.9012C113.535 76.49 113.2 76.1566 112.786 76.1566Z" fill="#E6E6E6"/>
<path d="M104.117 76.0326H95.6333C95.2195 76.0326 94.884 76.366 94.884 76.7772C94.884 77.1885 95.2195 77.5219 95.6333 77.5219H104.117C104.531 77.5219 104.866 77.1885 104.866 76.7772C104.866 76.366 104.531 76.0326 104.117 76.0326Z" fill="#E6E6E6"/>
<path d="M124.931 76.0326H116.448C116.034 76.0326 115.698 76.366 115.698 76.7772C115.698 77.1885 116.034 77.5219 116.448 77.5219H124.931C125.345 77.5219 125.68 77.1885 125.68 76.7772C125.68 76.366 125.345 76.0326 124.931 76.0326Z" fill="#E6E6E6"/>
<path d="M96.9149 79.5179H95.55C95.1361 79.5179 94.8007 79.8513 94.8007 80.2626C94.8007 80.6738 95.1361 81.0072 95.55 81.0072H96.9149C97.3287 81.0072 97.6642 80.6738 97.6642 80.2626C97.6642 79.8513 97.3287 79.5179 96.9149 79.5179Z" fill="#E6E6E6"/>
<path d="M112.526 79.5179H111.161C110.747 79.5179 110.411 79.8513 110.411 80.2626C110.411 80.6738 110.747 81.0072 111.161 81.0072H112.526C112.94 81.0072 113.275 80.6738 113.275 80.2626C113.275 79.8513 112.94 79.5179 112.526 79.5179Z" fill="#E6E6E6"/>
<path d="M116.949 79.5179H115.584C115.17 79.5179 114.835 79.8513 114.835 80.2626C114.835 80.6738 115.17 81.0072 115.584 81.0072H116.949C117.363 81.0072 117.698 80.6738 117.698 80.2626C117.698 79.8513 117.363 79.5179 116.949 79.5179Z" fill="#E6E6E6"/>
<path d="M108.28 79.3936H99.7963C99.3825 79.3936 99.047 79.727 99.047 80.1383C99.047 80.5495 99.3825 80.8829 99.7963 80.8829H108.28C108.694 80.8829 109.029 80.5495 109.029 80.1383C109.029 79.727 108.694 79.3936 108.28 79.3936Z" fill="#E6E6E6"/>
<path d="M100.037 92.8835H98.6722C98.2583 92.8835 97.9229 93.2169 97.9229 93.6282C97.9229 94.0395 98.2583 94.3728 98.6722 94.3728H100.037C100.451 94.3728 100.786 94.0395 100.786 93.6282C100.786 93.2169 100.451 92.8835 100.037 92.8835Z" fill="#E6E6E6"/>
<path d="M104.46 92.8835H103.095C102.681 92.8835 102.346 93.2169 102.346 93.6282C102.346 94.0395 102.681 94.3728 103.095 94.3728H104.46C104.874 94.3728 105.21 94.0395 105.21 93.6282C105.21 93.2169 104.874 92.8835 104.46 92.8835Z" fill="#E6E6E6"/>
<path d="M116.605 93.0078H108.122C107.708 93.0078 107.373 93.3412 107.373 93.7525C107.373 94.1637 107.708 94.4971 108.122 94.4971H116.605C117.019 94.4971 117.355 94.1637 117.355 93.7525C117.355 93.3412 117.019 93.0078 116.605 93.0078Z" fill="#E6E6E6"/>
<path d="M84.4263 92.8835H83.0613C82.6475 92.8835 82.312 93.2169 82.312 93.6282C82.312 94.0395 82.6475 94.3728 83.0613 94.3728H84.4263C84.8401 94.3728 85.1756 94.0395 85.1756 93.6282C85.1756 93.2169 84.8401 92.8835 84.4263 92.8835Z" fill="#E6E6E6"/>
<path d="M95.791 93.0078H87.3077C86.8938 93.0078 86.5583 93.3412 86.5583 93.7525C86.5583 94.1637 86.8938 94.4971 87.3077 94.4971H95.791C96.2048 94.4971 96.5403 94.1637 96.5403 93.7525C96.5403 93.3412 96.2048 93.0078 95.791 93.0078Z" fill="#E6E6E6"/>
<path d="M88.5891 89.5222H87.2242C86.8103 89.5222 86.4749 89.8556 86.4749 90.2669C86.4749 90.6781 86.8103 91.0115 87.2242 91.0115H88.5891C89.0029 91.0115 89.3384 90.6781 89.3384 90.2669C89.3384 89.8556 89.0029 89.5222 88.5891 89.5222Z" fill="#E6E6E6"/>
<path d="M104.2 89.5222H102.835C102.421 89.5222 102.086 89.8556 102.086 90.2669C102.086 90.6781 102.421 91.0115 102.835 91.0115H104.2C104.614 91.0115 104.949 90.6781 104.949 90.2669C104.949 89.8556 104.614 89.5222 104.2 89.5222Z" fill="#E6E6E6"/>
<path d="M108.623 89.5222H107.258C106.844 89.5222 106.509 89.8556 106.509 90.2669C106.509 90.6781 106.844 91.0115 107.258 91.0115H108.623C109.037 91.0115 109.372 90.6781 109.372 90.2669C109.372 89.8556 109.037 89.5222 108.623 89.5222Z" fill="#E6E6E6"/>
<path d="M99.9537 89.6465H91.4704C91.0565 89.6465 90.7211 89.9799 90.7211 90.3911C90.7211 90.8024 91.0565 91.1358 91.4704 91.1358H99.9537C100.368 91.1358 100.703 90.8024 100.703 90.3911C100.703 89.9799 100.368 89.6465 99.9537 89.6465Z" fill="#E6E6E6"/>
<path d="M92.7522 86.1612H91.3872C90.9734 86.1612 90.6379 86.4946 90.6379 86.9058C90.6379 87.3171 90.9734 87.6505 91.3872 87.6505H92.7522C93.166 87.6505 93.5015 87.3171 93.5015 86.9058C93.5015 86.4946 93.166 86.1612 92.7522 86.1612Z" fill="#E6E6E6"/>
<path d="M108.363 86.1612H106.998C106.584 86.1612 106.249 86.4946 106.249 86.9058C106.249 87.3171 106.584 87.6505 106.998 87.6505H108.363C108.777 87.6505 109.112 87.3171 109.112 86.9058C109.112 86.4946 108.777 86.1612 108.363 86.1612Z" fill="#E6E6E6"/>
<path d="M112.786 86.1612H111.421C111.007 86.1612 110.672 86.4946 110.672 86.9058C110.672 87.3171 111.007 87.6505 111.421 87.6505H112.786C113.2 87.6505 113.535 87.3171 113.535 86.9058C113.535 86.4946 113.2 86.1612 112.786 86.1612Z" fill="#E6E6E6"/>
<path d="M104.117 86.2853H95.6333C95.2195 86.2853 94.884 86.6187 94.884 87.0299C94.884 87.4412 95.2195 87.7746 95.6333 87.7746H104.117C104.531 87.7746 104.866 87.4412 104.866 87.0299C104.866 86.6187 104.531 86.2853 104.117 86.2853Z" fill="#E6E6E6"/>
<path d="M96.9149 82.7999H95.55C95.1361 82.7999 94.8007 83.1333 94.8007 83.5445C94.8007 83.9558 95.1361 84.2891 95.55 84.2891H96.9149C97.3287 84.2891 97.6642 83.9558 97.6642 83.5445C97.6642 83.1333 97.3287 82.7999 96.9149 82.7999Z" fill="#E6E6E6"/>
<path d="M112.526 82.7999H111.161C110.747 82.7999 110.411 83.1333 110.411 83.5445C110.411 83.9558 110.747 84.2891 111.161 84.2891H112.526C112.94 84.2891 113.275 83.9558 113.275 83.5445C113.275 83.1333 112.94 82.7999 112.526 82.7999Z" fill="#E6E6E6"/>
<path d="M116.949 82.7999H115.584C115.17 82.7999 114.835 83.1333 114.835 83.5445C114.835 83.9558 115.17 84.2891 115.584 84.2891H116.949C117.363 84.2891 117.698 83.9558 117.698 83.5445C117.698 83.1333 117.363 82.7999 116.949 82.7999Z" fill="#E6E6E6"/>
<path d="M108.28 82.9242H99.7963C99.3825 82.9242 99.047 83.2576 99.047 83.6688C99.047 84.0801 99.3825 84.4135 99.7963 84.4135H108.28C108.694 84.4135 109.029 84.0801 109.029 83.6688C109.029 83.2576 108.694 82.9242 108.28 82.9242Z" fill="#E6E6E6"/>
<path d="M91.04 141.161C90.9828 141.189 90.9256 141.217 90.8683 141.243C90.5067 141.422 90.1424 141.597 89.7756 141.771C88.6776 142.29 87.5658 142.784 86.4401 143.252C83.4781 144.483 80.4389 145.522 77.3416 146.363C76.8212 143.138 76.3165 135.534 75.8325 129.942C75.7415 128.889 75.6504 127.909 75.5593 127.043C75.4729 125.906 75.3086 124.776 75.0676 123.661C75.044 123.574 75.01 123.49 74.9661 123.41C75.0156 123.858 75.0676 125.192 75.117 127.043C75.143 127.909 75.1665 128.889 75.1925 129.942C75.3148 135.325 75.4422 142.65 75.5697 146.82C75.2081 146.908 74.8438 146.996 74.4796 147.079C74.2506 147.133 74.0191 147.185 73.7875 147.234C73.5065 147.296 73.2255 147.358 72.9445 147.415C72.6505 147.477 72.3565 147.537 72.0625 147.593C67.258 148.531 62.3731 149.002 57.4768 149C57.1516 149 56.829 148.997 56.5037 148.995C56.4049 148.995 56.306 148.992 56.2045 148.99C55.9183 148.984 55.6217 148.979 55.3199 148.972C49.5338 148.813 43.7855 147.989 38.1897 146.518L38.416 129.942L38.4551 127.043L38.4707 125.944C38.3418 126.298 38.2647 126.668 38.2417 127.043C38.1507 127.749 38.057 128.75 37.9633 129.942C37.6069 134.534 37.24 141.941 36.8602 146.156C32.3616 144.884 29.073 143.723 24.9621 141.68C24.8034 141.603 24.6421 141.522 24.4834 141.442C24.512 141.243 24.5432 141.044 24.5719 140.84C25.0376 137.623 24.4886 133.437 25.0038 129.942C25.3966 127.245 25.8025 124.654 26.211 122.456C26.7053 119.811 27.2075 117.733 27.7044 116.722C28.2768 115.555 28.8492 114.407 29.4034 113.309C29.6428 112.835 29.8778 112.371 30.1085 111.915C30.2334 111.669 30.3583 111.426 30.4805 111.188C31.0373 110.105 31.5629 109.104 32.0442 108.218C32.3825 107.594 32.6947 107.031 32.9809 106.537C33.3165 105.955 33.6131 105.474 33.8577 105.11C35.6641 102.389 38.352 100.362 41.4758 99.3671L41.5538 99.3465L41.6293 99.3775L41.7151 99.4163L46.6741 97.6141L48.8883 92.3163L60.2607 91.6207L62.0976 93.0092L63.0369 93.7202L64.0386 94.4778L65.8806 95.8714L66.4036 96.0317L67.1815 96.2696L72.5022 97.8934L72.5568 97.8701L72.6349 97.8908C75.4775 98.795 77.9658 100.557 79.7534 102.933C79.9303 103.16 80.0943 103.395 80.253 103.633C80.6849 104.269 81.2677 105.275 81.9545 106.537C82.2381 107.057 82.5373 107.62 82.8522 108.218C83.0421 108.577 84.6812 113.66 86.2761 118.852C87.767 123.713 89.2188 128.67 89.4087 129.942C89.4425 130.177 89.479 130.415 89.5128 130.65C89.7287 132.121 89.9421 133.603 90.1476 135.048C90.452 137.192 90.7486 139.26 91.0322 141.109C91.0348 141.127 91.0374 141.142 91.04 141.161Z" fill="#3F3D56"/>
<path opacity="0.2" d="M78.988 122.444L76.7772 113.966L74.8251 121.282L78.988 122.444Z" fill="black"/>
<path d="M4.11841 122.346C4.23304 122.678 4.45048 122.965 4.73952 123.166C5.02855 123.367 5.37431 123.472 5.72713 123.466L12.6198 123.29C12.9752 123.283 13.3188 123.162 13.5993 122.945C13.8798 122.728 14.082 122.426 14.1759 122.086L15.1513 111.721C15.4973 111.876 15.874 111.953 16.2539 111.946C16.9203 111.929 17.5529 111.65 18.0123 111.17C18.4717 110.69 18.7204 110.048 18.7037 109.386C18.687 108.724 18.4062 108.095 17.9231 107.638C17.44 107.182 16.7942 106.935 16.1277 106.951C15.9759 106.951 15.8245 106.966 15.676 106.998C15.5145 106.824 15.3183 106.686 15.0999 106.593C14.8815 106.499 14.6457 106.452 14.4079 106.454L3.8054 106.726C3.71745 106.73 3.62995 106.74 3.54387 106.759C3.31136 106.802 3.09083 106.894 2.89713 107.029C2.70343 107.163 2.54104 107.338 2.42091 107.54C2.30078 107.743 2.22569 107.969 2.20068 108.202C2.17568 108.436 2.20136 108.672 2.27597 108.895L4.11841 122.346ZM15.3513 111.017L16.0453 108.547C16.1243 108.262 16.1261 107.961 16.0506 107.674C16.0843 107.674 16.114 107.658 16.1477 107.658C16.6236 107.649 17.084 107.827 17.4279 108.154C17.7718 108.481 17.9712 108.93 17.9824 109.403C17.9935 109.876 17.8155 110.334 17.4874 110.677C17.1592 111.019 16.7077 111.219 16.2319 111.231C15.9242 111.24 15.6198 111.166 15.3513 111.017Z" fill="#2F2E41"/>
<path d="M3.54395 106.759C3.76983 108.042 6.30942 108.945 9.36309 108.788C12.1711 108.659 14.4672 107.679 14.8878 106.518C14.7321 106.472 14.5702 106.451 14.4079 106.454L3.80548 106.726C3.71752 106.73 3.63002 106.74 3.54395 106.759Z" fill="#3F3D56"/>
<path d="M9.92268 116.651C9.93664 116.647 9.94991 116.641 9.96195 116.633L11.4588 115.66C11.4769 115.648 11.4918 115.632 11.5021 115.613C11.5124 115.594 11.5177 115.573 11.5178 115.552C11.5178 115.53 11.5124 115.509 11.5021 115.49C11.4918 115.471 11.477 115.455 11.4589 115.444L9.90306 114.431C9.88878 114.421 9.87278 114.415 9.85597 114.412C9.83916 114.409 9.82187 114.409 9.8051 114.412C9.78833 114.416 9.77241 114.422 9.75824 114.432C9.74408 114.441 9.73196 114.454 9.72257 114.468C9.71319 114.482 9.70672 114.498 9.70355 114.515C9.70037 114.531 9.70055 114.549 9.70408 114.565C9.7076 114.582 9.7144 114.598 9.72408 114.612C9.73376 114.626 9.74614 114.638 9.7605 114.647L11.1501 115.551L9.81954 116.417C9.79378 116.434 9.77482 116.459 9.76605 116.488C9.75728 116.518 9.75925 116.549 9.77162 116.577C9.784 116.605 9.80596 116.628 9.83362 116.641C9.86128 116.655 9.89283 116.658 9.92267 116.651H9.92268Z" fill="#1976D2"/>
<path d="M7.55857 116.759C7.58369 116.752 7.60634 116.739 7.62362 116.72C7.64089 116.7 7.652 116.677 7.65552 116.651C7.65905 116.626 7.65483 116.6 7.6434 116.576C7.63197 116.553 7.61385 116.534 7.59137 116.521L6.21163 115.735L7.5452 114.751C7.5589 114.741 7.57047 114.728 7.57923 114.713C7.58799 114.699 7.59379 114.683 7.59628 114.666C7.59876 114.649 7.5979 114.632 7.59374 114.616C7.58958 114.599 7.58219 114.584 7.57201 114.57C7.56183 114.556 7.54905 114.545 7.5344 114.536C7.51975 114.528 7.50352 114.522 7.48663 114.519C7.46974 114.517 7.45252 114.518 7.43597 114.522C7.41941 114.526 7.40384 114.533 7.39014 114.543L5.89706 115.646C5.87971 115.658 5.86584 115.675 5.8567 115.695C5.84756 115.714 5.84344 115.736 5.84471 115.757C5.84598 115.778 5.8526 115.799 5.86397 115.817C5.87535 115.836 5.89112 115.851 5.90986 115.861L7.46189 116.746C7.49117 116.762 7.52585 116.767 7.55857 116.759Z" fill="#1976D2"/>
<path d="M9.7739 117.504C9.78649 117.501 9.79852 117.496 9.80955 117.489C9.82416 117.48 9.83688 117.468 9.84698 117.455C9.85707 117.441 9.86435 117.425 9.8684 117.409C9.87245 117.392 9.87319 117.375 9.87057 117.359C9.86795 117.342 9.86202 117.326 9.85313 117.311L7.73124 113.844C7.7132 113.815 7.68428 113.794 7.65082 113.786C7.61735 113.778 7.58206 113.784 7.55267 113.802C7.52328 113.819 7.50217 113.848 7.49398 113.881C7.48578 113.915 7.49116 113.95 7.50894 113.979L9.63082 117.446C9.6453 117.469 9.66701 117.488 9.69276 117.498C9.71851 117.509 9.74694 117.511 9.7739 117.504Z" fill="#1976D2"/>
<path d="M204.28 141.442C204.122 141.522 203.96 141.602 203.802 141.68C199.691 143.722 196.402 144.883 191.903 146.155C191.524 141.941 191.157 134.533 190.8 129.941C190.707 128.749 190.613 127.748 190.522 127.043C190.499 126.667 190.422 126.297 190.293 125.944L190.309 127.043L190.348 129.941L190.574 146.517C184.978 147.989 179.23 148.812 173.444 148.971C173.142 148.979 172.845 148.984 172.559 148.989C172.458 148.992 172.359 148.994 172.26 148.994C171.935 148.997 171.612 148.999 171.287 148.999C165.189 149.004 159.114 148.272 153.194 146.82C153.321 142.649 153.449 135.324 153.571 129.941C153.597 128.889 153.621 127.909 153.647 127.043C153.696 125.191 153.748 123.857 153.798 123.41C153.754 123.489 153.72 123.573 153.696 123.661C153.455 124.776 153.291 125.906 153.204 127.043C153.113 127.909 153.022 128.889 152.931 129.941C152.447 135.534 151.942 143.138 151.422 146.362C148.325 145.522 145.286 144.483 142.324 143.252C140.763 142.605 139.229 141.908 137.724 141.16C138.01 139.298 138.309 137.212 138.616 135.048C138.855 133.37 139.103 131.645 139.355 129.941C139.745 127.309 153.004 98.8856 156.129 97.8902L156.207 97.8695L156.261 97.8927L161.582 96.269L162.36 96.0311L162.883 95.8708L164.725 94.4772L165.727 93.7196L166.666 93.0086L168.503 91.6201L179.875 92.3156L182.089 97.6135L187.049 99.4157L187.134 99.3769L187.21 99.3458L187.288 99.3665C190.412 100.362 193.1 102.388 194.906 105.109C195.151 105.474 195.447 105.955 195.783 106.536C196.069 107.03 196.381 107.594 196.719 108.217C197.201 109.104 197.726 110.104 198.283 111.188C198.405 111.426 198.53 111.669 198.655 111.914C198.887 112.369 199.122 112.834 199.36 113.308C199.914 114.407 200.487 115.555 201.059 116.721C201.556 117.732 202.058 119.811 202.553 122.456C202.961 124.654 203.367 127.244 203.76 129.941C204.275 133.437 203.726 137.623 204.192 140.839C204.22 141.044 204.252 141.243 204.28 141.442Z" fill="#3F3D56"/>
<path d="M170.926 89.7184C178.231 89.7184 184.153 83.8336 184.153 76.5742C184.153 69.3149 178.231 63.4301 170.926 63.4301C163.621 63.4301 157.7 69.3149 157.7 76.5742C157.7 83.8336 163.621 89.7184 170.926 89.7184Z" fill="#FFB6B6"/>
<path opacity="0.2" d="M149.775 122.444L151.986 113.966L153.938 121.282L149.775 122.444Z" fill="black"/>
<path d="M208.604 116.92C207.813 127.749 208.633 132.516 204.267 141.444C200.295 143.377 196.157 144.953 191.903 146.155C191.461 146.28 191.018 146.4 190.574 146.517C184.978 147.989 179.229 148.812 173.443 148.971C173.142 148.979 172.845 148.984 172.559 148.989C172.457 148.992 172.358 148.994 172.26 148.994C171.934 148.997 171.612 149 171.286 149C165.189 149.004 159.113 148.272 153.194 146.82C152.6 146.675 152.01 146.523 151.422 146.362C148.324 145.522 145.285 144.483 142.323 143.252C140.762 142.605 139.229 141.908 137.723 141.16C137.382 140.989 137.042 140.819 136.706 140.643C134.981 137.628 134 133.962 133.979 129.556C135.173 121.965 205.966 110.374 208.604 116.92Z" fill="#2F2E41"/>
<path opacity="0.2" d="M208.602 118.775C208.642 118.104 208.688 117.412 208.74 116.691C206.102 110.144 135.31 121.735 134.115 129.326C134.119 130.022 134.149 130.698 134.199 131.357C137.091 123.865 204.345 112.848 208.602 118.775Z" fill="black"/>
<path d="M132.219 117.431L138.03 114.543L133.187 101.551L131.911 94.9982C131.745 94.1469 131.358 93.3538 130.787 92.6981C130.216 92.0424 129.482 91.547 128.658 91.2616C127.834 90.9761 126.949 90.9105 126.092 91.0713C125.235 91.2322 124.435 91.6138 123.772 92.1781C122.791 93.0143 122.174 94.1968 122.053 95.476C121.932 96.7553 122.316 98.0312 123.124 99.0346L127.861 104.919L132.219 117.431Z" fill="#FFB6B6"/>
<path d="M138.03 112.137L130.282 115.987L136.162 134.295C136.584 135.61 137.341 136.794 138.359 137.733C139.377 138.671 140.622 139.332 141.973 139.652C143.639 140.046 145.387 139.903 146.966 139.243C148.544 138.583 149.87 137.44 150.751 135.981L166.342 109.423C167.447 107.593 167.788 105.407 167.292 103.33C166.797 101.254 165.503 99.452 163.689 98.3101C162.713 97.696 161.618 97.2929 160.476 97.1272C159.333 96.9614 158.167 97.0366 157.056 97.3479C155.944 97.6593 154.911 98.1998 154.023 98.9342C153.136 99.6686 152.414 100.581 151.904 101.611L142.388 121.762L138.03 112.137Z" fill="#3F3D56"/>
<path d="M54.5097 88.8115C62.5472 88.8115 69.0629 82.3364 69.0629 74.349C69.0629 66.3616 62.5472 59.8865 54.5097 59.8865C46.4722 59.8865 39.9565 66.3616 39.9565 74.349C39.9565 82.3364 46.4722 88.8115 54.5097 88.8115Z" fill="#A0616A"/>
<path d="M40.1313 64.3824C41.3146 62.7975 43.0154 61.6707 44.3163 60.1796C45.0301 59.3614 45.6227 58.4344 46.4252 57.702C47.9161 56.3412 50.0012 55.7836 52.0243 55.7142C54.2416 55.6576 56.4411 56.1206 58.4449 57.0656C60.4487 58.0106 62.2004 59.4112 63.5584 61.1539C64.6159 60.5377 65.6734 59.9215 66.731 59.3054C67.1487 60.3982 67.5665 61.491 67.9843 62.5838C68.3272 62.2876 68.7645 62.1217 69.2188 62.1153C69.673 62.109 70.1149 62.2627 70.466 62.5492C70.8171 62.8356 71.0548 63.2364 71.137 63.6804C71.2192 64.1245 71.1405 64.5831 70.9149 64.9749C71.1666 64.2021 72.3197 64.0381 72.9554 64.5487C73.5911 65.0593 73.7613 65.9677 73.6576 66.7734C73.5274 67.6573 73.1342 68.4823 72.5285 69.1424C71.9227 69.8025 71.1322 70.2674 70.2584 70.4775C68.8784 70.783 67.2722 70.462 66.1677 71.3391C65.2822 72.0423 65.0149 73.3227 64.1112 74.0026C62.9976 74.8404 61.4237 74.4529 60.0394 74.6381C57.6177 74.962 55.7001 77.4235 55.9911 79.8346C55.772 79.0738 55.5418 78.291 55.0444 77.673C54.5471 77.055 53.7095 76.637 52.9468 76.8642C51.686 77.2398 51.4797 78.9476 51.7853 80.2199C52.5957 83.5941 55.667 89.0481 55.667 89.0481C51.679 90.6114 46.9279 89.1332 43.8509 86.1667C40.7739 83.2003 39.1714 78.9998 38.4733 74.7964C37.8813 71.2319 37.9652 67.2838 40.1313 64.3824Z" fill="#2F2E41"/>
<path d="M187.502 83.82C190.271 77.5117 188.702 71.7066 185.327 68.6271V68.6245C184 65.6692 182.236 63.3887 180.217 62.8535C179.241 62.2304 178.294 61.4987 177.243 61.1263C176.753 60.9442 176.232 60.8624 175.709 60.886C175.187 60.9095 174.675 61.0379 174.204 61.2634L173.668 61.1212C173.213 59.9654 172.679 59.9421 172.086 60.7023C169.802 59.6448 167.744 59.1716 165.912 59.1716C159.938 59.1716 156.405 64.198 155.469 70.2741L160.461 71.5954L162.197 68.8469L161.395 71.8436L164.151 72.5701C168.345 77.9973 163.326 90.5167 156.965 97.4822C158.479 97.066 159.987 96.7143 161.489 96.4273L166.948 88.4741L163.565 95.7137C165.322 95.4577 167.562 95.7033 170.01 96.1972C170.835 95.1268 171.269 93.6995 170.843 92.4274C171.54 93.769 172.021 95.2113 172.268 96.7014C177.436 97.9554 184.484 98.5992 188.282 99.0749C191.351 98.0793 191.36 86.8348 187.502 83.82Z" fill="#2F2E41"/>
<path d="M189.303 62.3619C191.331 66.8746 187.239 68.8156 183.49 68.7608C180.103 68.7113 177.224 66.3464 177.051 62.9843C176.968 61.3697 177.534 59.7885 178.624 58.5885C179.714 57.3885 181.239 56.6679 182.864 56.5854C186.247 56.4135 187.922 59.288 189.303 62.3619Z" fill="#2F2E41"/>
<path d="M95.2212 135.823L91.8806 130.286L102.988 121.912L107.606 117.066C108.206 116.436 108.962 115.974 109.798 115.726C110.634 115.478 111.521 115.452 112.37 115.651C113.219 115.85 114.001 116.267 114.637 116.86C115.273 117.453 115.742 118.202 115.996 119.032C116.372 120.261 116.252 121.588 115.663 122.731C115.074 123.875 114.06 124.746 112.836 125.161L105.66 127.596L95.2212 135.823Z" fill="#A0616A"/>
<path d="M97.6356 135.64L92.4346 139.948L91.0322 141.109L90.8683 141.243C90.5067 141.422 90.1424 141.597 89.7756 141.771C88.6776 142.29 87.5658 142.784 86.44 143.252C83.4781 144.483 80.4388 145.522 77.3416 146.363C76.7536 146.523 76.163 146.676 75.5697 146.82C75.2081 146.908 74.8438 146.996 74.4796 147.079C74.2506 147.133 74.0191 147.185 73.7875 147.234C73.5065 147.296 73.2255 147.358 72.9445 147.415C72.6505 147.477 72.3565 147.537 72.0625 147.593C71.2714 146.845 70.6416 145.945 70.2113 144.948C69.781 143.95 69.5593 142.877 69.5596 141.791C69.5596 141.722 69.5596 141.649 69.5622 141.577L70.3974 120.29L70.7668 110.855C70.8237 108.721 71.7181 106.694 73.2587 105.207C74.7994 103.72 76.8642 102.891 79.0119 102.896C79.2617 102.896 79.5089 102.909 79.7534 102.933C79.9304 103.16 80.0943 103.395 80.253 103.633C80.6849 104.269 81.2677 105.275 81.9546 106.537C82.2382 107.057 82.5374 107.62 82.8522 108.218C83.0421 108.577 84.6812 113.66 86.2761 118.852L85.5737 124.274L84.304 134.048L89.5128 130.65L93.1813 128.256L93.6158 128.977L94.7476 130.854L96.9331 134.474L97.6356 135.64Z" fill="#3F3D56"/>
<path d="M94.7841 129.556C94.7815 129.996 94.7711 130.428 94.7477 130.854C94.6935 132.031 94.5561 133.203 94.3366 134.36C93.9775 136.304 93.3369 138.186 92.4347 139.948C92.315 140.183 92.1875 140.416 92.0574 140.643C91.7218 140.819 91.381 140.99 91.0401 141.16C90.9829 141.189 90.9256 141.217 90.8684 141.243C89.4192 141.959 87.9431 142.629 86.4401 143.252C83.4781 144.483 80.4389 145.522 77.3416 146.363C76.7537 146.523 76.163 146.676 75.5698 146.82C74.412 147.105 73.243 147.362 72.0626 147.593C67.2581 148.531 62.3732 149.002 57.4769 149C57.1517 149 56.8291 148.997 56.5038 148.995C56.405 148.995 56.3061 148.992 56.2046 148.99C55.9184 148.984 55.6218 148.979 55.32 148.972C49.5338 148.813 43.7856 147.989 38.1898 146.518C37.7449 146.401 37.3017 146.281 36.8603 146.156C32.6064 144.954 28.4688 143.377 24.4965 141.445C20.1307 132.517 20.9502 127.749 20.1593 116.921C21.7828 112.89 49.25 115.736 70.3974 120.29C76.137 121.526 81.4083 122.888 85.5737 124.274C89.8771 125.704 92.9967 127.157 94.2195 128.522C94.5053 128.805 94.7015 129.164 94.7841 129.556Z" fill="#2F2E41"/>
<path opacity="0.2" d="M20.1608 118.775C20.1204 118.104 20.0753 117.412 20.0226 116.691C22.6608 110.144 93.4532 121.735 94.6474 129.326C94.6441 130.022 94.6142 130.698 94.5638 131.357C91.6717 123.865 24.4181 112.848 20.1608 118.775Z" fill="black"/>
</g>
<defs>
<clipPath id="clip0_40_5">
<rect width="229" height="149" fill="white"/>
</clipPath>
</defs>
</svg>
